<svg xmlns="http://www.w3.org/2000/svg" viewBox="0 0 64 64">
  <rect width="64" height="64" rx="14" fill="#12201b"/>
  <path d="M18 15v15c0 10 8 18 18 18h10" fill="none" stroke="#58d68d" stroke-width="5" stroke-linecap="round"/>
  <path d="M18 30h12c9 0 16-7 16-16" fill="none" stroke="#6ee7f9" stroke-width="5" stroke-linecap="round"/>
  <circle cx="18" cy="15" r="6" fill="#f8fafc"/>
  <circle cx="46" cy="15" r="6" fill="#f8fafc"/>
  <circle cx="46" cy="48" r="6" fill="#f8fafc"/>
  <path d="M27 25h19a5 5 0 0 1 5 5v14a5 5 0 0 1-5 5H27a5 5 0 0 1-5-5V30a5 5 0 0 1 5-5Z" fill="#facc15"/>
  <path d="M28 34h17M28 40h12" stroke="#12201b" stroke-width="3" stroke-linecap="round"/>
</svg>
